<?xml version="1.0" encoding="UTF-8" standalone="no"?>
<!DOCTYPE svg PUBLIC "-//W3C//DTD SVG 1.1//EN"
 "http://www.w3.org/Graphics/SVG/1.1/DTD/svg11.dtd">
<!-- Generated by graphviz version 2.42.3 (20191010.1750)
 -->
<!-- Title: %3 Pages: 1 -->
<svg width="170pt" height="260pt"
 viewBox="0.00 0.00 170.00 260.00" xmlns="http://www.w3.org/2000/svg" xmlns:xlink="http://www.w3.org/1999/xlink">
<g id="graph0" class="graph" transform="scale(1 1) rotate(0) translate(4 256)">
<title>%3</title>
<polygon fill="white" stroke="transparent" points="-4,4 -4,-256 166,-256 166,4 -4,4"/>
<!-- 60 -->
<g id="node1" class="node">
<title>60</title>
<ellipse fill="none" stroke="black" cx="99" cy="-234" rx="27" ry="18"/>
<text text-anchor="middle" x="99" y="-229.8" font-family="Times,serif" font-size="14.00">60</text>
</g>
<!-- 48 -->
<g id="node2" class="node">
<title>48</title>
<ellipse fill="none" stroke="black" cx="63" cy="-162" rx="27" ry="18"/>
<text text-anchor="middle" x="63" y="-157.8" font-family="Times,serif" font-size="14.00">30</text>
</g>
<!-- 60&#45;&gt;48 -->
<g id="edge1" class="edge">
<title>60&#45;&gt;48</title>
<path fill="none" stroke="black" d="M90.65,-216.76C86.29,-208.28 80.85,-197.71 75.96,-188.2"/>
<polygon fill="black" stroke="black" points="78.99,-186.44 71.3,-179.15 72.77,-189.64 78.99,-186.44"/>
</g>
<!-- 73 -->
<g id="node3" class="node">
<title>73</title>
<ellipse fill="none" stroke="black" cx="135" cy="-162" rx="27" ry="18"/>
<text text-anchor="middle" x="135" y="-157.8" font-family="Times,serif" font-size="14.00">73</text>
</g>
<!-- 60&#45;&gt;73 -->
<g id="edge2" class="edge">
<title>60&#45;&gt;73</title>
<path fill="none" stroke="black" d="M107.35,-216.76C111.71,-208.28 117.15,-197.71 122.04,-188.2"/>
<polygon fill="black" stroke="black" points="125.23,-189.64 126.7,-179.15 119.01,-186.44 125.23,-189.64"/>
</g>
<!-- 22 -->
<g id="node4" class="node">
<title>22</title>
<ellipse fill="none" stroke="black" cx="27" cy="-90" rx="27" ry="18"/>
<text text-anchor="middle" x="27" y="-85.8" font-family="Times,serif" font-size="14.00">22</text>
</g>
<!-- 48&#45;&gt;22 -->
<g id="edge3" class="edge">
<title>48&#45;&gt;22</title>
<path fill="none" stroke="black" d="M54.65,-144.76C50.29,-136.28 44.85,-125.71 39.96,-116.2"/>
<polygon fill="black" stroke="black" points="42.99,-114.44 35.3,-107.15 36.77,-117.64 42.99,-114.44"/>
</g>
<!-- 55 -->
<g id="node5" class="node">
<title>55</title>
<ellipse fill="none" stroke="black" cx="99" cy="-90" rx="27" ry="18"/>
<text text-anchor="middle" x="99" y="-85.8" font-family="Times,serif" font-size="14.00">55</text>
</g>
<!-- 48&#45;&gt;55 -->
<g id="edge4" class="edge">
<title>48&#45;&gt;55</title>
<path fill="none" stroke="black" d="M71.35,-144.76C75.71,-136.28 81.15,-125.71 86.04,-116.2"/>
<polygon fill="black" stroke="black" points="89.23,-117.64 90.7,-107.15 83.01,-114.44 89.23,-117.64"/>
</g>
<!-- 17 -->
<g id="node6" class="node">
<title>17</title>
<ellipse fill="none" stroke="black" cx="27" cy="-18" rx="27" ry="18"/>
<text text-anchor="middle" x="27" y="-13.8" font-family="Times,serif" font-size="14.00">17</text>
</g>
<!-- 22&#45;&gt;17 -->
<g id="edge5" class="edge">
<title>22&#45;&gt;17</title>
<path fill="none" stroke="black" d="M27,-71.7C27,-63.98 27,-54.71 27,-46.11"/>
<polygon fill="black" stroke="black" points="30.5,-46.1 27,-36.1 23.5,-46.1 30.5,-46.1"/>
</g>
</g>
</svg>
