<?xml version="1.0" encoding="UTF-8" standalone="no"?>
<!DOCTYPE svg PUBLIC "-//W3C//DTD SVG 1.1//EN"
 "http://www.w3.org/Graphics/SVG/1.1/DTD/svg11.dtd">
<!-- Generated by graphviz version 2.42.3 (20191010.1750)
 -->
<!-- Title: %3 Pages: 1 -->
<svg width="263pt" height="260pt"
 viewBox="0.00 0.00 263.00 260.00" xmlns="http://www.w3.org/2000/svg" xmlns:xlink="http://www.w3.org/1999/xlink">
<g id="graph0" class="graph" transform="scale(1 1) rotate(0) translate(4 256)">
<title>%3</title>
<polygon fill="white" stroke="transparent" points="-4,4 -4,-256 259,-256 259,4 -4,4"/>
<!-- 60 -->
<g id="node1" class="node">
<title>60</title>
<ellipse fill="none" stroke="black" cx="180" cy="-234" rx="27" ry="18"/>
<text text-anchor="middle" x="180" y="-229.8" font-family="Times,serif" font-size="14.00">60</text>
</g>
<!-- 48 -->
<g id="node2" class="node">
<title>48</title>
<ellipse fill="none" stroke="black" cx="133" cy="-162" rx="50.25" ry="18"/>
<text text-anchor="middle" x="133" y="-157.8" font-family="Times,serif" font-size="14.00">48 (Delete)</text>
</g>
<!-- 60&#45;&gt;48 -->
<g id="edge1" class="edge">
<title>60&#45;&gt;48</title>
<path fill="none" stroke="black" d="M169.33,-217.12C163.61,-208.59 156.42,-197.89 149.95,-188.25"/>
<polygon fill="black" stroke="black" points="152.76,-186.15 144.28,-179.8 146.95,-190.05 152.76,-186.15"/>
</g>
<!-- 73 -->
<g id="node3" class="node">
<title>73</title>
<ellipse fill="none" stroke="black" cx="228" cy="-162" rx="27" ry="18"/>
<text text-anchor="middle" x="228" y="-157.8" font-family="Times,serif" font-size="14.00">73</text>
</g>
<!-- 60&#45;&gt;73 -->
<g id="edge2" class="edge">
<title>60&#45;&gt;73</title>
<path fill="none" stroke="black" d="M190.89,-217.12C196.97,-208.26 204.66,-197.04 211.46,-187.12"/>
<polygon fill="black" stroke="black" points="214.38,-189.05 217.15,-178.82 208.61,-185.09 214.38,-189.05"/>
</g>
<!-- 22 -->
<g id="node4" class="node">
<title>22</title>
<ellipse fill="none" stroke="black" cx="80" cy="-90" rx="27" ry="18"/>
<text text-anchor="middle" x="80" y="-85.8" font-family="Times,serif" font-size="14.00">22</text>
</g>
<!-- 48&#45;&gt;22 -->
<g id="edge3" class="edge">
<title>48&#45;&gt;22</title>
<path fill="none" stroke="black" d="M120.44,-144.41C113.72,-135.53 105.32,-124.44 97.92,-114.67"/>
<polygon fill="black" stroke="black" points="100.57,-112.37 91.74,-106.51 94.99,-116.6 100.57,-112.37"/>
</g>
<!-- 55 -->
<g id="node5" class="node">
<title>55</title>
<ellipse fill="none" stroke="black" cx="187" cy="-90" rx="62.33" ry="18"/>
<text text-anchor="middle" x="187" y="-85.8" font-family="Times,serif" font-size="14.00">55 (Successor)</text>
</g>
<!-- 48&#45;&gt;55 -->
<g id="edge4" class="edge">
<title>48&#45;&gt;55</title>
<path fill="none" stroke="black" d="M145.8,-144.41C152.36,-135.91 160.48,-125.37 167.78,-115.91"/>
<polygon fill="black" stroke="black" points="170.58,-118.01 173.92,-107.96 165.04,-113.74 170.58,-118.01"/>
</g>
<!-- 17 -->
<g id="node6" class="node">
<title>17</title>
<ellipse fill="none" stroke="black" cx="27" cy="-18" rx="27" ry="18"/>
<text text-anchor="middle" x="27" y="-13.8" font-family="Times,serif" font-size="14.00">17</text>
</g>
<!-- 22&#45;&gt;17 -->
<g id="edge5" class="edge">
<title>22&#45;&gt;17</title>
<path fill="none" stroke="black" d="M68.24,-73.46C61.38,-64.4 52.58,-52.79 44.88,-42.61"/>
<polygon fill="black" stroke="black" points="47.56,-40.35 38.73,-34.49 41.98,-44.58 47.56,-40.35"/>
</g>
<!-- 30 -->
<g id="node7" class="node">
<title>30</title>
<ellipse fill="none" stroke="black" cx="134" cy="-18" rx="62.33" ry="18"/>
<text text-anchor="middle" x="134" y="-13.8" font-family="Times,serif" font-size="14.00">30 (Successor)</text>
</g>
<!-- 22&#45;&gt;30 -->
<g id="edge6" class="edge">
<title>22&#45;&gt;30</title>
<path fill="none" stroke="black" d="M91.98,-73.46C98.68,-64.78 107.19,-53.75 114.8,-43.89"/>
<polygon fill="black" stroke="black" points="117.58,-46.02 120.92,-35.96 112.04,-41.74 117.58,-46.02"/>
</g>
</g>
</svg>
