<?xml version="1.0" encoding="UTF-8" standalone="no"?>
<!DOCTYPE svg PUBLIC "-//W3C//DTD SVG 1.1//EN"
 "http://www.w3.org/Graphics/SVG/1.1/DTD/svg11.dtd">
<!-- Generated by graphviz version 2.42.3 (20191010.1750)
 -->
<!-- Title: %3 Pages: 1 -->
<svg width="216pt" height="260pt"
 viewBox="0.00 0.00 216.00 260.00" xmlns="http://www.w3.org/2000/svg" xmlns:xlink="http://www.w3.org/1999/xlink">
<g id="graph0" class="graph" transform="scale(1 1) rotate(0) translate(4 256)">
<title>%3</title>
<polygon fill="white" stroke="transparent" points="-4,4 -4,-256 212,-256 212,4 -4,4"/>
<!-- 60 -->
<g id="node1" class="node">
<title>60</title>
<ellipse fill="none" stroke="black" cx="145" cy="-234" rx="27" ry="18"/>
<text text-anchor="middle" x="145" y="-229.8" font-family="Times,serif" font-size="14.00">60</text>
</g>
<!-- 48 -->
<g id="node2" class="node">
<title>48</title>
<ellipse fill="none" stroke="black" cx="109" cy="-162" rx="27" ry="18"/>
<text text-anchor="middle" x="109" y="-157.8" font-family="Times,serif" font-size="14.00">30</text>
</g>
<!-- 60&#45;&gt;48 -->
<g id="edge1" class="edge">
<title>60&#45;&gt;48</title>
<path fill="none" stroke="black" d="M136.65,-216.76C132.29,-208.28 126.85,-197.71 121.96,-188.2"/>
<polygon fill="black" stroke="black" points="124.99,-186.44 117.3,-179.15 118.77,-189.64 124.99,-186.44"/>
</g>
<!-- 73 -->
<g id="node3" class="node">
<title>73</title>
<ellipse fill="none" stroke="black" cx="181" cy="-162" rx="27" ry="18"/>
<text text-anchor="middle" x="181" y="-157.8" font-family="Times,serif" font-size="14.00">73</text>
</g>
<!-- 60&#45;&gt;73 -->
<g id="edge2" class="edge">
<title>60&#45;&gt;73</title>
<path fill="none" stroke="black" d="M153.35,-216.76C157.71,-208.28 163.15,-197.71 168.04,-188.2"/>
<polygon fill="black" stroke="black" points="171.23,-189.64 172.7,-179.15 165.01,-186.44 171.23,-189.64"/>
</g>
<!-- 22 -->
<g id="node4" class="node">
<title>22</title>
<ellipse fill="none" stroke="black" cx="73" cy="-90" rx="27" ry="18"/>
<text text-anchor="middle" x="73" y="-85.8" font-family="Times,serif" font-size="14.00">22</text>
</g>
<!-- 48&#45;&gt;22 -->
<g id="edge3" class="edge">
<title>48&#45;&gt;22</title>
<path fill="none" stroke="black" d="M100.65,-144.76C96.29,-136.28 90.85,-125.71 85.96,-116.2"/>
<polygon fill="black" stroke="black" points="88.99,-114.44 81.3,-107.15 82.77,-117.64 88.99,-114.44"/>
</g>
<!-- 55 -->
<g id="node5" class="node">
<title>55</title>
<ellipse fill="none" stroke="black" cx="145" cy="-90" rx="27" ry="18"/>
<text text-anchor="middle" x="145" y="-85.8" font-family="Times,serif" font-size="14.00">55</text>
</g>
<!-- 48&#45;&gt;55 -->
<g id="edge4" class="edge">
<title>48&#45;&gt;55</title>
<path fill="none" stroke="black" d="M117.35,-144.76C121.71,-136.28 127.15,-125.71 132.04,-116.2"/>
<polygon fill="black" stroke="black" points="135.23,-117.64 136.7,-107.15 129.01,-114.44 135.23,-117.64"/>
</g>
<!-- 17 -->
<g id="node6" class="node">
<title>17</title>
<ellipse fill="none" stroke="black" cx="27" cy="-18" rx="27" ry="18"/>
<text text-anchor="middle" x="27" y="-13.8" font-family="Times,serif" font-size="14.00">17</text>
</g>
<!-- 22&#45;&gt;17 -->
<g id="edge5" class="edge">
<title>22&#45;&gt;17</title>
<path fill="none" stroke="black" d="M62.56,-73.12C56.8,-64.34 49.52,-53.26 43.04,-43.42"/>
<polygon fill="black" stroke="black" points="45.81,-41.26 37.4,-34.82 39.96,-45.1 45.81,-41.26"/>
</g>
<!-- 30 -->
<g id="node7" class="node">
<title>30</title>
<ellipse fill="none" stroke="black" cx="120" cy="-18" rx="48.33" ry="18"/>
<text text-anchor="middle" x="120" y="-13.8" font-family="Times,serif" font-size="14.00">30 (Extra) </text>
</g>
<!-- 22&#45;&gt;30 -->
<g id="edge6" class="edge">
<title>22&#45;&gt;30</title>
<path fill="none" stroke="black" d="M83.67,-73.12C89.39,-64.59 96.58,-53.89 103.05,-44.25"/>
<polygon fill="black" stroke="black" points="106.05,-46.05 108.72,-35.8 100.24,-42.15 106.05,-46.05"/>
</g>
</g>
</svg>
