<?xml version="1.0" encoding="UTF-8" standalone="no"?>
<!DOCTYPE svg PUBLIC "-//W3C//DTD SVG 1.1//EN"
 "http://www.w3.org/Graphics/SVG/1.1/DTD/svg11.dtd">
<!-- Generated by graphviz version 2.42.3 (20191010.1750)
 -->
<!-- Title: %3 Pages: 1 -->
<svg width="186pt" height="188pt"
 viewBox="0.00 0.00 185.92 188.00" xmlns="http://www.w3.org/2000/svg" xmlns:xlink="http://www.w3.org/1999/xlink">
<g id="graph0" class="graph" transform="scale(1 1) rotate(0) translate(4 184)">
<title>%3</title>
<polygon fill="white" stroke="transparent" points="-4,4 -4,-184 181.92,-184 181.92,4 -4,4"/>
<!-- P -->
<g id="node1" class="node">
<title>P</title>
<ellipse fill="none" stroke="black" cx="114.92" cy="-162" rx="27" ry="18"/>
<text text-anchor="middle" x="114.92" y="-157.8" font-family="Times,serif" font-size="14.00">P</text>
</g>
<!-- LC -->
<g id="node2" class="node">
<title>LC</title>
<ellipse fill="none" stroke="black" cx="78.92" cy="-90" rx="27" ry="18"/>
<text text-anchor="middle" x="78.92" y="-85.8" font-family="Times,serif" font-size="14.00">LC</text>
</g>
<!-- P&#45;&gt;LC -->
<g id="edge1" class="edge">
<title>P&#45;&gt;LC</title>
<path fill="none" stroke="black" d="M106.57,-144.76C102.21,-136.28 96.77,-125.71 91.88,-116.2"/>
<polygon fill="black" stroke="black" points="94.91,-114.44 87.22,-107.15 88.68,-117.64 94.91,-114.44"/>
</g>
<!-- RC -->
<g id="node3" class="node">
<title>RC</title>
<ellipse fill="none" stroke="black" cx="150.92" cy="-90" rx="27" ry="18"/>
<text text-anchor="middle" x="150.92" y="-85.8" font-family="Times,serif" font-size="14.00">RC</text>
</g>
<!-- P&#45;&gt;RC -->
<g id="edge2" class="edge">
<title>P&#45;&gt;RC</title>
<path fill="none" stroke="black" d="M123.27,-144.76C127.63,-136.28 133.07,-125.71 137.96,-116.2"/>
<polygon fill="black" stroke="black" points="141.15,-117.64 142.61,-107.15 134.93,-114.44 141.15,-117.64"/>
</g>
<!-- LC.LC -->
<g id="node4" class="node">
<title>LC.LC</title>
<ellipse fill="none" stroke="black" cx="34.92" cy="-18" rx="34.84" ry="18"/>
<text text-anchor="middle" x="34.92" y="-13.8" font-family="Times,serif" font-size="14.00">LC.LC</text>
</g>
<!-- LC&#45;&gt;LC.LC -->
<g id="edge3" class="edge">
<title>LC&#45;&gt;LC.LC</title>
<path fill="none" stroke="black" d="M68.93,-73.12C63.5,-64.47 56.65,-53.58 50.53,-43.83"/>
<polygon fill="black" stroke="black" points="53.45,-41.91 45.17,-35.31 47.53,-45.64 53.45,-41.91"/>
</g>
<!-- LC.RC -->
<g id="node5" class="node">
<title>LC.RC</title>
<ellipse fill="none" stroke="black" cx="122.92" cy="-18" rx="35.33" ry="18"/>
<text text-anchor="middle" x="122.92" y="-13.8" font-family="Times,serif" font-size="14.00">LC.RC</text>
</g>
<!-- LC&#45;&gt;LC.RC -->
<g id="edge4" class="edge">
<title>LC&#45;&gt;LC.RC</title>
<path fill="none" stroke="black" d="M88.9,-73.12C94.34,-64.47 101.19,-53.58 107.31,-43.83"/>
<polygon fill="black" stroke="black" points="110.31,-45.64 112.67,-35.31 104.38,-41.91 110.31,-45.64"/>
</g>
</g>
</svg>
