<?xml version="1.0" encoding="UTF-8" standalone="no"?>
<!DOCTYPE svg PUBLIC "-//W3C//DTD SVG 1.1//EN"
 "http://www.w3.org/Graphics/SVG/1.1/DTD/svg11.dtd">
<!-- Generated by graphviz version 2.42.3 (20191010.1750)
 -->
<!-- Title: %3 Pages: 1 -->
<svg width="208pt" height="262pt"
 viewBox="0.00 0.00 208.00 262.00" xmlns="http://www.w3.org/2000/svg" xmlns:xlink="http://www.w3.org/1999/xlink">
<g id="graph0" class="graph" transform="scale(1 1) rotate(0) translate(4 258)">
<title>%3</title>
<polygon fill="white" stroke="transparent" points="-4,4 -4,-258 204,-258 204,4 -4,4"/>
<g id="clust1" class="cluster">
<title>cluster_0</title>
<polygon fill="none" stroke="black" points="8,-8 8,-246 192,-246 192,-8 8,-8"/>
<text text-anchor="middle" x="100" y="-230.8" font-family="Times,serif" font-size="14.00">Tree 0</text>
</g>
<g id="clust2" class="cluster">
<title>cluster_0.0.0</title>
<polygon fill="none" stroke="black" points="16,-16 16,-90 96,-90 96,-16 16,-16"/>
<text text-anchor="middle" x="56" y="-74.8" font-family="Times,serif" font-size="14.00">Tree 0.0.0</text>
</g>
<g id="clust3" class="cluster">
<title>cluster_0.0.1</title>
<polygon fill="none" stroke="black" points="104,-16 104,-90 184,-90 184,-16 104,-16"/>
<text text-anchor="middle" x="144" y="-74.8" font-family="Times,serif" font-size="14.00">Tree 0.0.1</text>
</g>
<g id="clust4" class="cluster">
<title>cluster_0.0</title>
<polygon fill="none" stroke="black" points="23,-98 23,-172 93,-172 93,-98 23,-98"/>
<text text-anchor="middle" x="58" y="-156.8" font-family="Times,serif" font-size="14.00">Tree 0.0</text>
</g>
<g id="clust5" class="cluster">
<title>cluster_0.1</title>
<polygon fill="none" stroke="black" points="101,-98 101,-172 181,-172 181,-98 101,-98"/>
<text text-anchor="middle" x="141" y="-156.8" font-family="Times,serif" font-size="14.00">Tree 0.1</text>
</g>
<!-- A -->
<g id="node1" class="node">
<title>A</title>
<ellipse fill="none" stroke="black" cx="99" cy="-198" rx="27" ry="18"/>
<text text-anchor="middle" x="99" y="-193.8" font-family="Times,serif" font-size="14.00">A</text>
</g>
<!-- B -->
<g id="node4" class="node">
<title>B</title>
<ellipse fill="none" stroke="black" cx="58" cy="-124" rx="27" ry="18"/>
<text text-anchor="middle" x="58" y="-119.8" font-family="Times,serif" font-size="14.00">B</text>
</g>
<!-- A&#45;&gt;B -->
<g id="edge3" class="edge">
<title>A&#45;&gt;B</title>
<path fill="none" stroke="black" d="M89.9,-181.02C84.73,-171.95 78.15,-160.39 72.31,-150.13"/>
<polygon fill="black" stroke="black" points="75.21,-148.14 67.22,-141.18 69.12,-151.61 75.21,-148.14"/>
</g>
<!-- e1 -->
<g id="node5" class="node">
<title>e1</title>
<ellipse fill="none" stroke="black" stroke-dasharray="1,5" cx="141" cy="-124" rx="32.42" ry="18"/>
<text text-anchor="middle" x="141" y="-119.8" font-family="Times,serif" font-size="14.00">empty</text>
</g>
<!-- A&#45;&gt;e1 -->
<g id="edge4" class="edge">
<title>A&#45;&gt;e1</title>
<path fill="none" stroke="black" d="M108.32,-181.02C113.58,-172.01 120.26,-160.55 126.21,-150.35"/>
<polygon fill="black" stroke="black" points="129.4,-151.84 131.41,-141.43 123.35,-148.31 129.4,-151.84"/>
</g>
<!-- e2 -->
<g id="node2" class="node">
<title>e2</title>
<ellipse fill="none" stroke="black" stroke-dasharray="1,5" cx="56" cy="-42" rx="32.42" ry="18"/>
<text text-anchor="middle" x="56" y="-37.8" font-family="Times,serif" font-size="14.00">empty</text>
</g>
<!-- e3 -->
<g id="node3" class="node">
<title>e3</title>
<ellipse fill="none" stroke="black" stroke-dasharray="1,5" cx="144" cy="-42" rx="32.42" ry="18"/>
<text text-anchor="middle" x="144" y="-37.8" font-family="Times,serif" font-size="14.00">empty</text>
</g>
<!-- B&#45;&gt;e2 -->
<g id="edge1" class="edge">
<title>B&#45;&gt;e2</title>
<path fill="none" stroke="black" d="M57.57,-105.64C57.31,-95.3 56.97,-81.94 56.68,-70.22"/>
<polygon fill="black" stroke="black" points="60.18,-69.96 56.43,-60.05 53.18,-70.13 60.18,-69.96"/>
</g>
<!-- B&#45;&gt;e3 -->
<g id="edge2" class="edge">
<title>B&#45;&gt;e3</title>
<path fill="none" stroke="black" d="M75.65,-110.09C83.35,-104.21 92.35,-97.02 100,-90 108.03,-82.63 116.33,-74.06 123.52,-66.27"/>
<polygon fill="black" stroke="black" points="126.16,-68.57 130.3,-58.81 120.98,-63.86 126.16,-68.57"/>
</g>
</g>
</svg>
