<?xml version="1.0" encoding="UTF-8" standalone="no"?>
<!DOCTYPE svg PUBLIC "-//W3C//DTD SVG 1.1//EN"
 "http://www.w3.org/Graphics/SVG/1.1/DTD/svg11.dtd">
<!-- Generated by graphviz version 2.42.3 (20191010.1750)
 -->
<!-- Title: %3 Pages: 1 -->
<svg width="416pt" height="262pt"
 viewBox="0.00 0.00 416.00 262.00" xmlns="http://www.w3.org/2000/svg" xmlns:xlink="http://www.w3.org/1999/xlink">
<g id="graph0" class="graph" transform="scale(1 1) rotate(0) translate(4 258)">
<title>%3</title>
<polygon fill="white" stroke="transparent" points="-4,4 -4,-258 412,-258 412,4 -4,4"/>
<g id="clust1" class="cluster">
<title>cluster_0</title>
<polygon fill="none" stroke="black" points="8,-8 8,-246 400,-246 400,-8 8,-8"/>
<text text-anchor="middle" x="204" y="-230.8" font-family="Times,serif" font-size="14.00">Tree 0</text>
</g>
<g id="clust2" class="cluster">
<title>cluster_0.0</title>
<polygon fill="none" stroke="black" points="16,-16 16,-172 200,-172 200,-16 16,-16"/>
<text text-anchor="middle" x="108" y="-156.8" font-family="Times,serif" font-size="14.00">Tree 0.0</text>
</g>
<g id="clust3" class="cluster">
<title>cluster_0.0.0</title>
<polygon fill="none" stroke="black" points="24,-24 24,-98 104,-98 104,-24 24,-24"/>
<text text-anchor="middle" x="64" y="-82.8" font-family="Times,serif" font-size="14.00">Tree 0.0.0</text>
</g>
<g id="clust4" class="cluster">
<title>cluster_0.0.1</title>
<polygon fill="none" stroke="black" points="112,-24 112,-98 192,-98 192,-24 112,-24"/>
<text text-anchor="middle" x="152" y="-82.8" font-family="Times,serif" font-size="14.00">Tree 0.0.1</text>
</g>
<g id="clust5" class="cluster">
<title>cluster_0.1</title>
<polygon fill="none" stroke="black" points="208,-16 208,-172 392,-172 392,-16 208,-16"/>
<text text-anchor="middle" x="300" y="-156.8" font-family="Times,serif" font-size="14.00">Tree 0.1</text>
</g>
<g id="clust6" class="cluster">
<title>cluster_0.1.0</title>
<polygon fill="none" stroke="black" points="216,-24 216,-98 296,-98 296,-24 216,-24"/>
<text text-anchor="middle" x="256" y="-82.8" font-family="Times,serif" font-size="14.00">Tree 0.1.0</text>
</g>
<g id="clust7" class="cluster">
<title>cluster_0.1.1</title>
<polygon fill="none" stroke="black" points="304,-24 304,-98 384,-98 384,-24 304,-24"/>
<text text-anchor="middle" x="344" y="-82.8" font-family="Times,serif" font-size="14.00">Tree 0.1.1</text>
</g>
<!-- A -->
<g id="node1" class="node">
<title>A</title>
<ellipse fill="none" stroke="black" cx="204" cy="-198" rx="27" ry="18"/>
<text text-anchor="middle" x="204" y="-193.8" font-family="Times,serif" font-size="14.00">A</text>
</g>
<!-- B -->
<g id="node2" class="node">
<title>B</title>
<ellipse fill="none" stroke="black" cx="152" cy="-124" rx="27" ry="18"/>
<text text-anchor="middle" x="152" y="-119.8" font-family="Times,serif" font-size="14.00">B</text>
</g>
<!-- A&#45;&gt;B -->
<g id="edge5" class="edge">
<title>A&#45;&gt;B</title>
<path fill="none" stroke="black" d="M192.72,-181.38C185.83,-171.85 176.9,-159.48 169.16,-148.75"/>
<polygon fill="black" stroke="black" points="171.95,-146.65 163.26,-140.59 166.28,-150.75 171.95,-146.65"/>
</g>
<!-- C -->
<g id="node5" class="node">
<title>C</title>
<ellipse fill="none" stroke="black" cx="256" cy="-124" rx="27" ry="18"/>
<text text-anchor="middle" x="256" y="-119.8" font-family="Times,serif" font-size="14.00">C</text>
</g>
<!-- A&#45;&gt;C -->
<g id="edge6" class="edge">
<title>A&#45;&gt;C</title>
<path fill="none" stroke="black" d="M215.28,-181.38C222.17,-171.85 231.1,-159.48 238.84,-148.75"/>
<polygon fill="black" stroke="black" points="241.72,-150.75 244.74,-140.59 236.05,-146.65 241.72,-150.75"/>
</g>
<!-- 0.0.0 -->
<g id="node3" class="node">
<title>0.0.0</title>
<ellipse fill="none" stroke="black" stroke-dasharray="1,5" cx="64" cy="-50" rx="32.42" ry="18"/>
<text text-anchor="middle" x="64" y="-45.8" font-family="Times,serif" font-size="14.00">empty</text>
</g>
<!-- B&#45;&gt;0.0.0 -->
<g id="edge1" class="edge">
<title>B&#45;&gt;0.0.0</title>
<path fill="none" stroke="black" d="M130.58,-112.52C123.12,-108.44 114.9,-103.44 108,-98 99.31,-91.15 90.76,-82.57 83.54,-74.62"/>
<polygon fill="black" stroke="black" points="86.05,-72.17 76.81,-66.97 80.79,-76.79 86.05,-72.17"/>
</g>
<!-- 0.0.1 -->
<g id="node4" class="node">
<title>0.0.1</title>
<ellipse fill="none" stroke="black" stroke-dasharray="1,5" cx="152" cy="-50" rx="32.42" ry="18"/>
<text text-anchor="middle" x="152" y="-45.8" font-family="Times,serif" font-size="14.00">empty</text>
</g>
<!-- B&#45;&gt;0.0.1 -->
<g id="edge2" class="edge">
<title>B&#45;&gt;0.0.1</title>
<path fill="none" stroke="black" d="M152,-105.94C152,-97.81 152,-87.88 152,-78.7"/>
<polygon fill="black" stroke="black" points="155.5,-78.44 152,-68.44 148.5,-78.44 155.5,-78.44"/>
</g>
<!-- 0.1.0 -->
<g id="node6" class="node">
<title>0.1.0</title>
<ellipse fill="none" stroke="black" stroke-dasharray="1,5" cx="256" cy="-50" rx="32.42" ry="18"/>
<text text-anchor="middle" x="256" y="-45.8" font-family="Times,serif" font-size="14.00">empty</text>
</g>
<!-- C&#45;&gt;0.1.0 -->
<g id="edge3" class="edge">
<title>C&#45;&gt;0.1.0</title>
<path fill="none" stroke="black" d="M256,-105.94C256,-97.81 256,-87.88 256,-78.7"/>
<polygon fill="black" stroke="black" points="259.5,-78.44 256,-68.44 252.5,-78.44 259.5,-78.44"/>
</g>
<!-- 0.1.1 -->
<g id="node7" class="node">
<title>0.1.1</title>
<ellipse fill="none" stroke="black" stroke-dasharray="1,5" cx="344" cy="-50" rx="32.42" ry="18"/>
<text text-anchor="middle" x="344" y="-45.8" font-family="Times,serif" font-size="14.00">empty</text>
</g>
<!-- C&#45;&gt;0.1.1 -->
<g id="edge4" class="edge">
<title>C&#45;&gt;0.1.1</title>
<path fill="none" stroke="black" d="M277.42,-112.52C284.88,-108.44 293.1,-103.44 300,-98 308.69,-91.15 317.24,-82.57 324.46,-74.62"/>
<polygon fill="black" stroke="black" points="327.21,-76.79 331.19,-66.97 321.95,-72.17 327.21,-76.79"/>
</g>
</g>
</svg>
