<?xml version="1.0" encoding="UTF-8" standalone="no"?>
<!DOCTYPE svg PUBLIC "-//W3C//DTD SVG 1.1//EN"
 "http://www.w3.org/Graphics/SVG/1.1/DTD/svg11.dtd">
<!-- Generated by graphviz version 2.42.3 (20191010.1750)
 -->
<!-- Title: %3 Pages: 1 -->
<svg width="257pt" height="188pt"
 viewBox="0.00 0.00 256.55 188.00" xmlns="http://www.w3.org/2000/svg" xmlns:xlink="http://www.w3.org/1999/xlink">
<g id="graph0" class="graph" transform="scale(1 1) rotate(0) translate(4 184)">
<title>%3</title>
<polygon fill="white" stroke="transparent" points="-4,4 -4,-184 252.55,-184 252.55,4 -4,4"/>
<!-- 0 (Root) -->
<g id="node1" class="node">
<title>0 (Root)</title>
<ellipse fill="none" stroke="black" cx="158.09" cy="-162" rx="39.66" ry="18"/>
<text text-anchor="middle" x="158.09" y="-157.8" font-family="Times,serif" font-size="14.00">0 (Root)</text>
</g>
<!-- 0.0 -->
<g id="node2" class="node">
<title>0.0</title>
<ellipse fill="none" stroke="black" cx="113.09" cy="-90" rx="27" ry="18"/>
<text text-anchor="middle" x="113.09" y="-85.8" font-family="Times,serif" font-size="14.00">0.0</text>
</g>
<!-- 0 (Root)&#45;&gt;0.0 -->
<g id="edge1" class="edge">
<title>0 (Root)&#45;&gt;0.0</title>
<path fill="none" stroke="black" d="M147.43,-144.41C141.91,-135.83 135.07,-125.19 128.95,-115.67"/>
<polygon fill="black" stroke="black" points="131.72,-113.51 123.37,-106.99 125.83,-117.29 131.72,-113.51"/>
</g>
<!-- 0.1 (Leaf) -->
<g id="node3" class="node">
<title>0.1 (Leaf)</title>
<ellipse fill="none" stroke="black" cx="203.09" cy="-90" rx="45.42" ry="18"/>
<text text-anchor="middle" x="203.09" y="-85.8" font-family="Times,serif" font-size="14.00">0.1 (Leaf)</text>
</g>
<!-- 0 (Root)&#45;&gt;0.1 (Leaf) -->
<g id="edge2" class="edge">
<title>0 (Root)&#45;&gt;0.1 (Leaf)</title>
<path fill="none" stroke="black" d="M168.76,-144.41C174.11,-136.08 180.72,-125.8 186.71,-116.49"/>
<polygon fill="black" stroke="black" points="189.73,-118.26 192.19,-107.96 183.84,-114.48 189.73,-118.26"/>
</g>
<!-- 0.0.0 (Leaf) -->
<g id="node4" class="node">
<title>0.0.0 (Leaf)</title>
<ellipse fill="none" stroke="black" cx="52.09" cy="-18" rx="52.18" ry="18"/>
<text text-anchor="middle" x="52.09" y="-13.8" font-family="Times,serif" font-size="14.00">0.0.0 (Leaf)</text>
</g>
<!-- 0.0&#45;&gt;0.0.0 (Leaf) -->
<g id="edge3" class="edge">
<title>0.0&#45;&gt;0.0.0 (Leaf)</title>
<path fill="none" stroke="black" d="M100.16,-74.15C92.43,-65.29 82.42,-53.8 73.54,-43.61"/>
<polygon fill="black" stroke="black" points="75.93,-41.03 66.72,-35.79 70.65,-45.63 75.93,-41.03"/>
</g>
<!-- 0.0.1 (Leaf) -->
<g id="node5" class="node">
<title>0.0.1 (Leaf)</title>
<ellipse fill="none" stroke="black" cx="174.09" cy="-18" rx="52.18" ry="18"/>
<text text-anchor="middle" x="174.09" y="-13.8" font-family="Times,serif" font-size="14.00">0.0.1 (Leaf)</text>
</g>
<!-- 0.0&#45;&gt;0.0.1 (Leaf) -->
<g id="edge4" class="edge">
<title>0.0&#45;&gt;0.0.1 (Leaf)</title>
<path fill="none" stroke="black" d="M126.03,-74.15C133.75,-65.29 143.76,-53.8 152.64,-43.61"/>
<polygon fill="black" stroke="black" points="155.53,-45.63 159.46,-35.79 150.25,-41.03 155.53,-45.63"/>
</g>
</g>
</svg>
