<?xml version="1.0" encoding="UTF-8" standalone="no"?>
<!DOCTYPE svg PUBLIC "-//W3C//DTD SVG 1.1//EN"
 "http://www.w3.org/Graphics/SVG/1.1/DTD/svg11.dtd">
<!-- Generated by graphviz version 2.42.3 (20191010.1750)
 -->
<!-- Title: %3 Pages: 1 -->
<svg width="172pt" height="188pt"
 viewBox="0.00 0.00 171.79 188.00" xmlns="http://www.w3.org/2000/svg" xmlns:xlink="http://www.w3.org/1999/xlink">
<g id="graph0" class="graph" transform="scale(1 1) rotate(0) translate(4 184)">
<title>%3</title>
<polygon fill="white" stroke="transparent" points="-4,4 -4,-184 167.79,-184 167.79,4 -4,4"/>
<!-- 0 (Root) -->
<g id="node1" class="node">
<title>0 (Root)</title>
<ellipse fill="none" stroke="black" cx="100.79" cy="-162" rx="39.66" ry="18"/>
<text text-anchor="middle" x="100.79" y="-157.8" font-family="Times,serif" font-size="14.00">0 (Root)</text>
</g>
<!-- 0.0 -->
<g id="node2" class="node">
<title>0.0</title>
<ellipse fill="none" stroke="black" cx="64.79" cy="-90" rx="27" ry="18"/>
<text text-anchor="middle" x="64.79" y="-85.8" font-family="Times,serif" font-size="14.00">0.0</text>
</g>
<!-- 0 (Root)&#45;&gt;0.0 -->
<g id="edge1" class="edge">
<title>0 (Root)&#45;&gt;0.0</title>
<path fill="none" stroke="black" d="M92.26,-144.41C87.96,-136.04 82.64,-125.71 77.84,-116.37"/>
<polygon fill="black" stroke="black" points="80.95,-114.76 73.26,-107.47 74.73,-117.96 80.95,-114.76"/>
</g>
<!-- 0.1 -->
<g id="node3" class="node">
<title>0.1</title>
<ellipse fill="none" stroke="black" cx="136.79" cy="-90" rx="27" ry="18"/>
<text text-anchor="middle" x="136.79" y="-85.8" font-family="Times,serif" font-size="14.00">0.1</text>
</g>
<!-- 0 (Root)&#45;&gt;0.1 -->
<g id="edge2" class="edge">
<title>0 (Root)&#45;&gt;0.1</title>
<path fill="none" stroke="black" d="M109.33,-144.41C113.63,-136.04 118.94,-125.71 123.75,-116.37"/>
<polygon fill="black" stroke="black" points="126.86,-117.96 128.32,-107.47 120.64,-114.76 126.86,-117.96"/>
</g>
<!-- 0.0.0 -->
<g id="node4" class="node">
<title>0.0.0</title>
<ellipse fill="none" stroke="black" cx="27.79" cy="-18" rx="27.59" ry="18"/>
<text text-anchor="middle" x="27.79" y="-13.8" font-family="Times,serif" font-size="14.00">0.0.0</text>
</g>
<!-- 0.0&#45;&gt;0.0.0 -->
<g id="edge3" class="edge">
<title>0.0&#45;&gt;0.0.0</title>
<path fill="none" stroke="black" d="M56.21,-72.76C51.73,-64.28 46.14,-53.71 41.11,-44.2"/>
<polygon fill="black" stroke="black" points="44.1,-42.35 36.33,-35.15 37.91,-45.62 44.1,-42.35"/>
</g>
<!-- 0.0.1 -->
<g id="node5" class="node">
<title>0.0.1</title>
<ellipse fill="none" stroke="black" cx="101.79" cy="-18" rx="27.59" ry="18"/>
<text text-anchor="middle" x="101.79" y="-13.8" font-family="Times,serif" font-size="14.00">0.0.1</text>
</g>
<!-- 0.0&#45;&gt;0.0.1 -->
<g id="edge4" class="edge">
<title>0.0&#45;&gt;0.0.1</title>
<path fill="none" stroke="black" d="M73.38,-72.76C77.86,-64.28 83.44,-53.71 88.48,-44.2"/>
<polygon fill="black" stroke="black" points="91.68,-45.62 93.26,-35.15 85.49,-42.35 91.68,-45.62"/>
</g>
</g>
</svg>
